<svg id="Layer_1" data-name="Layer 1" xmlns="http://www.w3.org/2000/svg" viewBox="0 0 87.52 103.49"><path d="M503.66,349.48l-.26-.19-.27-.17-.24-.14-.29-.14-.26-.12-.28-.1-.28-.1-.29-.07-.29-.08-.34-.05-.25,0a6.22,6.22,0,0,0-1.22,0l-.25,0-.34.05-.29.08-.29.07-.28.1-.28.1-.26.12-.29.14-.24.14-.27.17-.26.19-.22.16a5.92,5.92,0,0,0-.45.41L458,387.68a6.12,6.12,0,0,0,8.65,8.66l27.19-27.18v76.46a6.12,6.12,0,0,0,12.24,0V369.16l27.19,27.18a6.12,6.12,0,1,0,8.65-8.66l-37.63-37.63a5.92,5.92,0,0,0-.45-.41Z" transform="translate(-456.24 -348.26)"/></svg>