<svg id="Layer_1" data-name="Layer 1" xmlns="http://www.w3.org/2000/svg" viewBox="0 0 93.09 107.49"><path d="M519,453.74H483.28c-6.76,0-12.58-5.33-13.55-12.4l-9.69-71a2,2,0,0,1,2-2.27h76.57a2,2,0,0,1,1.5.67,2,2,0,0,1,.49,1.56l-8,70.75C531.73,448.27,525.89,453.74,519,453.74ZM464.31,372l9.39,68.78c.69,5.1,4.81,8.94,9.58,8.94H519c4.88,0,9-3.95,9.61-9.19L536.35,372Z" transform="translate(-453.45 -346.26)"/><path d="M544.55,372h-89.1a2,2,0,0,1-2-2v-13.1a2,2,0,0,1,2-2h89.1a2,2,0,0,1,2,2V370A2,2,0,0,1,544.55,372Zm-87.1-4h85.1v-9.1h-85.1Z" transform="translate(-453.45 -346.26)"/><path d="M510.83,358.92H489.17a2,2,0,0,1-2-2v-8.66a2,2,0,0,1,2-2h21.66a2,2,0,0,1,2,2v8.66A2,2,0,0,1,510.83,358.92Zm-19.66-4h17.66v-4.66H491.17Z" transform="translate(-453.45 -346.26)"/><rect x="483.22" y="432.51" width="4" height="8.89" transform="translate(-503.31 -283.55) rotate(-7.03)"/><rect x="479.51" y="381.02" width="4" height="51.72" transform="translate(-499.64 -284.25) rotate(-7.03)"/><rect x="510.33" y="434.95" width="8.89" height="4" transform="translate(-434.75 548.77) rotate(-83.04)"/><rect x="492.6" y="404.87" width="51.71" height="4" transform="translate(-401.66 525.99) rotate(-83.04)"/><rect x="498.15" y="381.21" width="4" height="45.29" transform="translate(-456.19 -342.84) rotate(-0.39)"/><rect x="44.86" y="80.24" width="4" height="14.87"/></svg>